<svg xmlns="http://www.w3.org/2000/svg" viewBox="0 0 1280.75 542.56"><defs><style>.cls-1{fill:#ed4c67;}</style></defs><title>Asset 1</title><g id="Layer_2" data-name="Layer 2"><g id="Layer_1-2" data-name="Layer 1"><path class="cls-1" d="M0,74a995.39,995.39,0,0,1,307.5,49.5c121.32,39.9,204.44,93.48,222,105,52,34.09,46.62,38.61,176,138,91.44,70.25,129.39,95.08,171,118,64,35.25,106.77,56.93,168,58,19.54.34,79.61.61,139-37,39.74-25.17,60.89-55.71,67-65,10.87-16.53,28.19-42.86,30-78,.54-10.45,0-28,0-28s0,8,0,15q-.26-174.75-.5-349.5H0Z"/></g></g></svg>