<svg id="Layer_1" data-name="Layer 1" xmlns="http://www.w3.org/2000/svg" xmlns:xlink="http://www.w3.org/1999/xlink" viewBox="0 0 1280 2104"><defs><style>.cls-1{fill:url(#linear-gradient);}</style><linearGradient id="linear-gradient" x1="1043.76" y1="867.72" x2="-492.23" y2="-19.08" gradientUnits="userSpaceOnUse"><stop offset="0" stop-color="#ed4c67"/><stop offset="1" stop-color="#0652dd"/></linearGradient></defs><title>Landing@1280</title><path class="cls-1" d="M0-1.29V1190c82.84,39.52,137.43,74.78,153.84,85.54,77.94,51.11,69.89,57.88,263.84,206.88,137.09,105.31,194,142.54,256.35,176.9,96,52.85,160.07,85.34,251.86,87,29.3.51,119.35.91,208.38-55.47,59.57-37.73,91.28-83.52,100.44-97.44,16.29-24.78,42.26-64.26,45-116.94.81-15.66,0-19.49,0-19.49l-.33-.13.7.19V-1.29Z"/></svg>