<svg xmlns="http://www.w3.org/2000/svg" width="1919" height="449" viewBox="0 0 1919 449">
  <g id="Path_14" data-name="Path 14" transform="translate(-1940 -2340)" fill="#ed4c67" stroke-linejoin="round">
    <path d="M 3612.01025390625 2788.4873046875 L 3315.282470703125 2714.668701171875 L 2830.444091796875 2572.247314453125 L 2830.423583984375 2572.241455078125 L 2830.40283203125 2572.237060546875 L 2294.07275390625 2463.153076171875 L 1942.952392578125 2340.50146484375 L 3858.5 2341.499755859375 L 3858.5 2737.592529296875 L 3612.01025390625 2788.4873046875 Z" stroke="none"/>
    <path d="M 1945.90380859375 2341.003173828125 L 2294.20458984375 2462.669677734375 L 2830.502197265625 2571.7470703125 C 2830.530029296875 2571.7529296875 2830.557373046875 2571.759765625 2830.584716796875 2571.767578125 L 3315.413818359375 2714.18603515625 L 3612.02099609375 2787.974609375 L 3858 2737.185546875 L 3858 2341.99951171875 L 1945.90380859375 2341.003173828125 M 1940 2340 L 3859 2341 L 3859 2738 L 3612 2789 L 3315.1513671875 2715.1513671875 L 2830.302978515625 2572.72705078125 L 2293.939208984375 2463.63623046875 L 1940 2340 Z" stroke="none" fill="#707070"/>
  </g>
</svg>
